<?xml version="1.0" encoding="utf-8"?>
<!-- Generator: Adobe Illustrator 19.2.1, SVG Export Plug-In . SVG Version: 6.00 Build 0)  -->
<svg version="1.1" id="layer" xmlns="http://www.w3.org/2000/svg" xmlns:xlink="http://www.w3.org/1999/xlink" x="0px" y="0px"
	 viewBox="0 0 652 652" style="enable-background:new 0 0 652 652;" xml:space="preserve">
<style type="text/css">
	.st0{fill:#175FAB;}
</style>
<path class="st0" d="M101,354.9h2.7V367c0,2.8,1.8,4.5,4.8,4.5c2.4,0.2,4.5-1.5,4.8-3.9c0-0.2,0-0.5,0-0.7v-12.1h2.5v12.1
	c0,4.2-3,7-7.4,7c-3.8,0.3-7.1-2.6-7.4-6.4c0-0.2,0-0.4,0-0.6v-11.9H101z"/>
<path class="st0" d="M124.7,354.9h2.5l8.3,12.2c0.7,1,1.6,2.7,1.6,2.7l0,0c0,0-0.1-1.6-0.1-2.7v-12.2h2.5v18.8h-2.5l-8.3-12.2
	c-0.7-1-1.6-2.7-1.6-2.7l0,0c0,0,0.1,1.6,0.1,2.7v12.2h-2.5V354.9z"/>
<rect x="148.7" y="354.9" class="st0" width="2.7" height="18.8"/>
<path class="st0" d="M158.1,354.9h2.8l4.6,13.3c0.3,1,0.7,2.5,0.7,2.5l0,0c0.2-0.9,0.4-1.7,0.7-2.5l4.8-13.3h2.8l-6.8,18.8h-2.8
	L158.1,354.9z"/>
<polygon class="st0" points="181.1,354.9 192,354.9 192,357.2 183.8,357.2 183.8,363.1 190.5,363.1 190.5,365.4 183.8,365.4 
	183.8,371.3 192.5,371.3 192.5,373.7 181.1,373.7 "/>
<path class="st0" d="M206.8,363.9c1.7,0.1,3.2-1.2,3.3-2.9c0-0.2,0-0.4,0-0.5c0.1-1.2-0.5-2.3-1.5-2.8c-0.8-0.4-1.7-0.6-2.5-0.4h-3
	v6.7H206.8z M200.4,354.9h5.7c1.2-0.1,2.4,0.1,3.6,0.4c2.8,1.3,3.9,4.7,2.6,7.4c-0.6,1.2-1.6,2.2-2.9,2.7l0,0
	c0.2,0.3,0.4,0.6,0.6,0.9l4,7.3h-3l-4-7.4h-4v7.4h-2.7v-18.8H200.4z"/>
<path class="st0" d="M221.3,369.5c1.3,1.3,3,2,4.8,2.1c1.6,0.2,3.1-1,3.3-2.7c0,0,0,0,0,0c0-4-9.1-3.1-9.1-8.9c0-3,2.5-5.2,6.1-5.2
	c2,0,3.9,0.7,5.4,1.9l-1.2,2.2c-1.2-1-2.6-1.6-4.2-1.6c-1.7-0.2-3.2,1-3.4,2.7c0,3.9,9.1,2.8,9.1,8.9c0,2.8-2.2,5.2-6,5.2
	c-2.3,0-4.6-0.9-6.3-2.5L221.3,369.5z"/>
<rect x="239.8" y="354.9" class="st0" width="2.7" height="18.8"/>
<polygon class="st0" points="255.4,357.2 249,357.2 249,354.9 264.5,354.9 264.5,357.2 258.1,357.2 258.1,373.7 255.4,373.7 "/>
<path class="st0" d="M275.1,365.8l-6.3-10.7h3l3.4,6.1c0.6,1,1.2,2.4,1.2,2.4l0,0c0,0,0.6-1.3,1.2-2.4l3.4-6.1h3l-6.3,10.7v7.9h-2.7
	V365.8z"/>
<path class="st0" d="M291.9,363.7c0-1.9,1.5-3.5,3.4-3.6s3.5,1.5,3.6,3.4s-1.5,3.5-3.4,3.6c0,0-0.1,0-0.1,0c-1.9,0-3.4-1.4-3.4-3.3
	C291.9,363.8,291.9,363.8,291.9,363.7"/>
<path class="st0" d="M315,357.5c0,0-0.4,1.6-0.7,2.7l-2.1,6h5.7l-2.1-6C315.5,359.2,315.3,358.4,315,357.5L315,357.5z M318.6,368.3
	h-7l-1.8,5.4h-2.7l6.7-18.8h2.8l6.7,18.8h-2.7L318.6,368.3z"/>
<path class="st0" d="M329.6,354.9h2.7V367c0,2.8,1.8,4.5,4.8,4.5c2.4,0.2,4.5-1.5,4.8-3.9c0-0.2,0-0.5,0-0.7v-12.1h2.7v12.1
	c0,4.2-3,7-7.4,7c-3.8,0.3-7.1-2.6-7.4-6.4c0-0.2,0-0.4,0-0.6V354.9z"/>
<path class="st0" d="M353.3,369.5c1.3,1.3,3,2,4.8,2.1c1.6,0.2,3.1-1,3.3-2.7c0,0,0,0,0,0c0-4-9.1-3.1-9.1-8.9c0-3,2.5-5.2,6.1-5.2
	c2,0,3.9,0.7,5.4,1.9l-1.2,2.2c-1.2-1-2.6-1.6-4.2-1.6c-1.7-0.2-3.2,1-3.4,2.7c0,3.9,9.1,2.8,9.1,8.9c0,2.8-2.2,5.2-6,5.2
	c-2.3,0-4.6-0.9-6.3-2.5L353.3,369.5z"/>
<polygon class="st0" points="375.6,357.2 369.2,357.2 369.2,354.9 384.7,354.9 384.7,357.2 378.3,357.2 378.3,373.7 375.6,373.7 "/>
<path class="st0" d="M397.8,363.9c1.7,0.1,3.2-1.2,3.3-2.9c0-0.2,0-0.4,0-0.5c0.1-1.2-0.5-2.3-1.5-2.8c-0.8-0.4-1.7-0.6-2.5-0.4h-3
	v6.7H397.8z M391.4,354.9h5.7c1.2-0.1,2.4,0.1,3.6,0.4c2.8,1.3,3.9,4.7,2.6,7.4c-0.6,1.2-1.6,2.2-2.9,2.7l0,0
	c0.2,0.3,0.4,0.6,0.6,0.9l4,7.3h-3l-4-7.4h-4v7.4h-2.7v-18.8H391.4z"/>
<path class="st0" d="M418,357.5c0,0-0.4,1.6-0.7,2.7l-2.1,6h5.7l-2.1-6C418.6,359.2,418.3,358.4,418,357.5z M421.6,368.3h-7
	l-1.8,5.4h-2.7l6.7-18.8h2.8l6.7,18.8h-2.7L421.6,368.3z"/>
<polygon class="st0" points="432.9,354.9 435.6,354.9 435.6,371.3 443.9,371.3 443.9,373.7 432.9,373.7 "/>
<rect x="450.9" y="354.9" class="st0" width="2.7" height="18.8"/>
<path class="st0" d="M468.3,357.5c0,0-0.4,1.6-0.7,2.7l-2.1,6h5.7l-2.1-6C469,359.2,468.7,358.3,468.3,357.5z M471.9,368.3h-7
	l-1.8,5.4h-2.7l6.7-18.8h2.8l6.7,18.8H474L471.9,368.3z"/>
<path class="st0" d="M391.8,330.4c8.5,0,15.6-6.6,15.6-16.4c0-9.8-7.1-16.4-15.6-16.4s-15.6,6.7-15.6,16.4
	C376.2,323.7,383.2,330.4,391.8,330.4 M391.7,286.5c16.1,0,29,11.5,29,27.5s-13,27.5-28.9,27.5c-15.9,0-29-11.3-29-27.5
	C362.8,297.8,375.6,286.5,391.7,286.5"/>
<path class="st0" d="M426.1,287.8h12.7v6.1c0,1.9-0.1,3.6-0.1,3.6h0.1c3.6-6.9,10.9-11.2,18.8-10.9c11.6,0,18.3,6.1,18.3,20v33.8
	h-13v-31.1c0-6.4-1.6-10.7-8.3-10.7c-6.6,0-12.4,4.4-14.1,10.7c-0.7,2.3-1,4.6-0.9,7v24.1h-13.1v-52.6H426.1z"/>
<path class="st0" d="M288.5,317.6c0,6.4-4.9,13.8-11.9,13.8c-5.4,0-7.9-3.3-7.9-6.8c0-7.3,10.9-8.2,17.6-8.2h2.2V317.6z
	 M279.6,286.5c-8.9,0-15.3,0-18.3,0.1l0,0c0,5.2,3.7,9.7,8.8,10.7h8.3c5.8,0,10.1,2.4,10.1,9.2v0.7h-1.8c-8.6,0-31.1,1.2-31.1,17.9
	c0,10.6,8.5,16.4,17.9,16.4c11.9,0,16.1-9.2,15.9-9.2h0.1c0,0-0.1,1.6-0.1,3.7v4.3h12.1v-32.9C301.4,294,293.3,286.5,279.6,286.5"/>
<path class="st0" d="M55.9,299.3H33.8v-20.7h31.9v-11.5H20.5v73.3h13.3v-29.6h15.3C53.3,308.5,56,304.1,55.9,299.3"/>
<path class="st0" d="M344.3,300.7v39.5h13.1v-52.4C350.2,287.7,344.4,293.5,344.3,300.7C344.3,300.7,344.3,300.7,344.3,300.7"/>
<path class="st0" d="M335.4,329.3c-3.6,0-10.4-1.2-10.4-9.8V299h11.9v-10.4H325V271c-6.2,0-11.6,4.4-12.8,10.6v7H305V299h6.8v22
	c0,17.6,14.6,19.8,21.9,19.8c1.3,0,2.7-0.1,4-0.3V329C337,329.2,336.2,329.3,335.4,329.3"/>
<path class="st0" d="M138.9,330.5c-7.7,0-13.1-6.6-13.1-16.5c0-10.4,6-16.2,13.3-16.2c8.8,0,13.1,8,13.1,16.2
	C152,325.6,145.6,330.5,138.9,330.5 M151.7,279v11c0,1.6,0.1,3,0.1,3h-0.3c0,0-3.6-6.7-15.2-6.7c-14,0-23.8,10.9-23.8,27.5
	c0,16.2,9.1,27.5,23.4,27.5c12.1,0,16.5-8.9,16.5-8.9h0.1c0,0-0.1,1.5-0.1,3.4v4.3h12.4v-74.1C157.6,266,151.7,271.8,151.7,279
	C151.7,279,151.7,279,151.7,279"/>
<path class="st0" d="M357.9,277.4c0,3.5-2.9,6.4-6.4,6.4c-3.5,0-6.4-2.9-6.4-6.4c0-3.5,2.9-6.4,6.4-6.4
	C355,270.9,357.8,273.8,357.9,277.4C357.9,277.3,357.9,277.3,357.9,277.4"/>
<path class="st0" d="M84.7,296.6c5.8,0,10.3,3.9,10.4,10.9H72.2C73.4,300.7,78,296.6,84.7,296.6 M102.2,325
	c-4.2,3.3-9.4,5.2-14.7,5.4c-7.9,0-15-4.8-15.8-13.8H108c0,0,0.3-3.6,0.3-5.1c0-13.8-8.2-25-23.4-25c-15.6,0-26.8,11.3-26.8,27.5
	c0,14.9,10.9,27.5,28.3,27.5c11.2,0,19.2-7.6,21.7-10.4L102.2,325z"/>
<path class="st0" d="M196.6,296.6c5.8,0,10.3,3.9,10.4,10.9H184C185.2,300.7,189.9,296.6,196.6,296.6 M214,325
	c-4.2,3.3-9.4,5.2-14.7,5.4c-7.9,0-15-4.8-15.8-13.8h36.3c0,0,0.3-3.6,0.3-5.1c0-13.8-8.2-25-23.4-25c-15.6,0-26.8,11.3-26.8,27.5
	c0,14.9,10.9,27.5,28.3,27.5c11.2,0,19.2-7.6,21.7-10.4L214,325z"/>
<path class="st0" d="M226,287.8h12.7v8.5c0,1.9-0.1,3.7-0.1,3.7h0.1c2.4-7.6,8.6-13.5,16.7-13.5c0.8,0,1.6,0.1,2.4,0.1v13
	c0,0-1.3-0.1-3.1-0.1c-6.7,0-12.6,4.5-14.3,11c-0.9,2.7-1.3,5.6-1.2,8.5v21.4H226V287.8z"/>
<path class="st0" d="M426.1,287.8h12.7v6.1c0,1.9-0.1,3.6-0.1,3.6h0.1c3.6-6.9,10.9-11.2,18.8-10.9c11.6,0,18.3,6.1,18.3,20v33.8
	h-13v-31.1c0-6.4-1.6-10.7-8.3-10.7c-6.6,0-12.4,4.4-14.1,10.7c-0.7,2.3-1,4.6-0.9,7v24.1h-13.1v-52.6H426.1z"/>
<path class="st0" d="M543.2,331.7c-15.1-1.8-30.4-0.1-44.7,5.2v31.3c14.3-5.2,29.6-7,44.7-5.1V331.7z"/>
<polygon class="st0" points="517.6,319.8 517.8,325.5 522.1,322 526.6,325.5 526.6,319.8 531.9,318.6 527.6,315 530,310.1 
	524.5,311.3 522.1,306.3 519.7,311.3 514.2,310.1 516.6,315 512.3,318.6 "/>
<path class="st0" d="M571.2,341.5v29.3c-10.3,2.5-28.3,3.7-28-3.6v2.5c-0.3,7.3,17.7,6.1,28,3.6c16.4-4,32.9-11.3,49.3-8.2v-30.4
	C604.1,331.3,587.6,338,571.2,341.5"/>
<polygon class="st0" points="586.3,324.1 584.9,329.2 589.8,327.1 593,331.4 594.3,326.4 599.5,326.5 596.4,322.2 599.8,318.3 
	594.6,318 593.6,312.8 590.1,316.8 585.5,314.4 586.4,319.7 581.6,321.7 "/>
<polygon class="st0" points="552.8,358.1 552.8,363.7 557.2,360.2 561.5,363.7 561.7,358.1 567.1,356.9 562.7,353.3 565.1,348.2 
	559.6,349.4 557.2,344.5 554.8,349.4 549.3,348.2 551.7,353.3 547.4,356.9 "/>
<path class="st0" d="M571.2,280.3c-10.1,1.6-27.5,3.3-28-1.8c0.4-2.5,17.6-3,8.3-6.1c-10.7-3.4-36.6-1.9-53,4.2v30.7
	c14.2-5.4,29.6-7.2,44.7-5.4v-21.1c-0.3,5.5,17.7,3.7,28,2.1V313c16.4-3.1,32.9-9.4,49.3-5.4v-31.1
	C604.1,272,587.6,277.7,571.2,280.3"/>
<polygon class="st0" points="552.8,303.4 552.8,308.9 557.2,305.5 561.5,308.9 561.7,303.4 567.1,302.1 562.7,298.7 565.1,293.6 
	559.6,294.8 557.2,289.7 554.8,294.8 549.3,293.6 551.7,298.7 547.4,302.1 "/>
<polygon class="st0" points="552.8,330.1 552.8,335.7 557.2,332.3 561.5,335.7 561.7,330.1 567.1,328.9 562.7,325.3 565.1,320.3 
	559.6,321.6 557.2,316.5 554.8,321.6 549.3,320.3 551.7,325.3 547.4,328.9 "/>
</svg>
